<?xml version="1.0" encoding="UTF-8" standalone="no"?>
<!DOCTYPE svg PUBLIC "-//W3C//DTD SVG 1.1//EN"
 "http://www.w3.org/Graphics/SVG/1.1/DTD/svg11.dtd">
<!-- Generated by graphviz version 2.38.0 (20140413.2041)
 -->
<!-- Title: G Pages: 1 -->
<svg width="542pt" height="740pt"
 viewBox="0.00 0.00 541.89 740.00" xmlns="http://www.w3.org/2000/svg" xmlns:xlink="http://www.w3.org/1999/xlink">
<g id="graph0" class="graph" transform="scale(1 1) rotate(0) translate(4 736)">
<title>G</title>
<polygon fill="white" stroke="none" points="-4,4 -4,-736 537.892,-736 537.892,4 -4,4"/>
<g id="clust1" class="cluster"><title>cluster_Global</title>
<path fill="none" stroke="gray" d="M20,-8C20,-8 513.892,-8 513.892,-8 519.892,-8 525.892,-14 525.892,-20 525.892,-20 525.892,-712 525.892,-712 525.892,-718 519.892,-724 513.892,-724 513.892,-724 20,-724 20,-724 14,-724 8,-718 8,-712 8,-712 8,-20 8,-20 8,-14 14,-8 20,-8"/>
<text text-anchor="middle" x="266.946" y="-711.2" font-family="Times New Roman,serif" font-size="11.00" fill="gray">Global</text>
</g>
<g id="clust2" class="cluster"><title>cluster_\donbidon</title>
<path fill="none" stroke="gray" d="M28,-16C28,-16 505.892,-16 505.892,-16 511.892,-16 517.892,-22 517.892,-28 517.892,-28 517.892,-640 517.892,-640 517.892,-646 511.892,-652 505.892,-652 505.892,-652 28,-652 28,-652 22,-652 16,-646 16,-640 16,-640 16,-28 16,-28 16,-22 22,-16 28,-16"/>
<text text-anchor="middle" x="266.946" y="-639.2" font-family="Times New Roman,serif" font-size="11.00" fill="gray">donbidon</text>
</g>
<g id="clust3" class="cluster"><title>cluster_\donbidon\Core</title>
<path fill="none" stroke="gray" d="M36,-24C36,-24 497.892,-24 497.892,-24 503.892,-24 509.892,-30 509.892,-36 509.892,-36 509.892,-612 509.892,-612 509.892,-618 503.892,-624 497.892,-624 497.892,-624 36,-624 36,-624 30,-624 24,-618 24,-612 24,-612 24,-36 24,-36 24,-30 30,-24 36,-24"/>
<text text-anchor="middle" x="266.946" y="-611.2" font-family="Times New Roman,serif" font-size="11.00" fill="gray">Core</text>
</g>
<g id="clust5" class="cluster"><title>cluster_\donbidon\Core\Log</title>
<path fill="none" stroke="gray" d="M44,-292C44,-292 468.892,-292 468.892,-292 474.892,-292 480.892,-298 480.892,-304 480.892,-304 480.892,-540 480.892,-540 480.892,-546 474.892,-552 468.892,-552 468.892,-552 44,-552 44,-552 38,-552 32,-546 32,-540 32,-540 32,-304 32,-304 32,-298 38,-292 44,-292"/>
<text text-anchor="middle" x="256.446" y="-539.2" font-family="Times New Roman,serif" font-size="11.00" fill="gray">Log</text>
</g>
<g id="clust6" class="cluster"><title>cluster_\donbidon\Core\Log\Method</title>
<path fill="none" stroke="gray" d="M52,-398C52,-398 460.892,-398 460.892,-398 466.892,-398 472.892,-404 472.892,-410 472.892,-410 472.892,-512 472.892,-512 472.892,-518 466.892,-524 460.892,-524 460.892,-524 52,-524 52,-524 46,-524 40,-518 40,-512 40,-512 40,-410 40,-410 40,-404 46,-398 52,-398"/>
<text text-anchor="middle" x="256.446" y="-511.2" font-family="Times New Roman,serif" font-size="11.00" fill="gray">Method</text>
</g>
<g id="clust4" class="cluster"><title>cluster_\donbidon\Core\Event</title>
<path fill="none" stroke="gray" d="M223.446,-32C223.446,-32 279.446,-32 279.446,-32 285.446,-32 291.446,-38 291.446,-44 291.446,-44 291.446,-146 291.446,-146 291.446,-152 285.446,-158 279.446,-158 279.446,-158 223.446,-158 223.446,-158 217.446,-158 211.446,-152 211.446,-146 211.446,-146 211.446,-44 211.446,-44 211.446,-38 217.446,-32 223.446,-32"/>
<text text-anchor="middle" x="251.446" y="-145.2" font-family="Times New Roman,serif" font-size="11.00" fill="gray">Event</text>
</g>
<g id="clust7" class="cluster"><title>cluster_\donbidon\Core\Registry</title>
<path fill="none" stroke="gray" d="M52,-166C52,-166 470.892,-166 470.892,-166 476.892,-166 482.892,-172 482.892,-178 482.892,-178 482.892,-226 482.892,-226 482.892,-232 476.892,-238 470.892,-238 470.892,-238 52,-238 52,-238 46,-238 40,-232 40,-226 40,-226 40,-178 40,-178 40,-172 46,-166 52,-166"/>
<text text-anchor="middle" x="261.446" y="-225.2" font-family="Times New Roman,serif" font-size="11.00" fill="gray">Registry</text>
</g>
<!-- \\donbidon\\Core\\Event\\Args -->
<g id="node1" class="node"><title>\\donbidon\\Core\\Event\\Args</title>
<polygon fill="none" stroke="black" points="278.446,-130 224.446,-130 224.446,-94 278.446,-94 278.446,-130"/>
<text text-anchor="middle" x="251.446" y="-109.2" font-family="Courier,monospace" font-size="11.00">Args</text>
</g>
<!-- \\donbidon\\Core\\Registry\\I_Registry -->
<g id="node11" class="node"><title>\\donbidon\\Core\\Registry\\I_Registry</title>
<polygon fill="none" stroke="black" points="132,-210 48,-210 48,-174 132,-174 132,-210"/>
<text text-anchor="middle" x="90" y="-189.2" font-family="Courier,monospace" font-size="11.00">I_Registry</text>
</g>
<!-- \\donbidon\\Core\\Event\\Args&#45;&gt;\\donbidon\\Core\\Registry\\I_Registry -->
<g id="edge1" class="edge"><title>\\donbidon\\Core\\Event\\Args&#45;&gt;\\donbidon\\Core\\Registry\\I_Registry</title>
<path fill="none" stroke="black" stroke-dasharray="1,5" d="M224.117,-125.21C200.173,-137.224 164.336,-155.205 135.876,-169.484"/>
<polygon fill="none" stroke="black" points="134.288,-166.365 126.919,-173.978 137.427,-172.622 134.288,-166.365"/>
</g>
<!-- \\donbidon\\Core\\Event\\Manager -->
<g id="node2" class="node"><title>\\donbidon\\Core\\Event\\Manager</title>
<polygon fill="none" stroke="black" points="283.446,-76 219.446,-76 219.446,-40 283.446,-40 283.446,-76"/>
<text text-anchor="middle" x="251.446" y="-55.2" font-family="Courier,monospace" font-size="11.00">Manager</text>
</g>
<!-- \\donbidon\\Core\\Log\\Method\\A_Method -->
<g id="node3" class="node"><title>\\donbidon\\Core\\Log\\Method\\A_Method</title>
<polygon fill="none" stroke="black" points="132,-469 48,-469 48,-433 132,-433 132,-469"/>
<text text-anchor="start" x="56" y="-454.2" font-family="Courier,monospace" font-size="11.00">«abstract»</text>
<text text-anchor="start" x="62.5" y="-442.2" font-family="Courier,monospace" font-size="11.00">A_Method</text>
</g>
<!-- \\donbidon\\Core\\Log\\Method\\A_Stream -->
<g id="node4" class="node"><title>\\donbidon\\Core\\Log\\Method\\A_Stream</title>
<polygon fill="none" stroke="black" points="293.446,-442 209.446,-442 209.446,-406 293.446,-406 293.446,-442"/>
<text text-anchor="start" x="217.446" y="-427.2" font-family="Courier,monospace" font-size="11.00">«abstract»</text>
<text text-anchor="start" x="223.946" y="-415.2" font-family="Courier,monospace" font-size="11.00">A_Stream</text>
</g>
<!-- \\donbidon\\Core\\Log\\Method\\A_Stream&#45;&gt;\\donbidon\\Core\\Log\\Method\\A_Method -->
<g id="edge3" class="edge"><title>\\donbidon\\Core\\Log\\Method\\A_Stream&#45;&gt;\\donbidon\\Core\\Log\\Method\\A_Method</title>
<path fill="none" stroke="black" d="M209.385,-430.953C188.913,-434.42 163.954,-438.646 142.24,-442.323"/>
<polygon fill="none" stroke="black" points="141.474,-438.903 132.199,-444.024 142.643,-445.805 141.474,-438.903"/>
</g>
<!-- \\donbidon\\Core\\Log\\Method\\File -->
<g id="node5" class="node"><title>\\donbidon\\Core\\Log\\Method\\File</title>
<polygon fill="none" stroke="black" points="278.446,-496 224.446,-496 224.446,-460 278.446,-460 278.446,-496"/>
<text text-anchor="middle" x="251.446" y="-475.2" font-family="Courier,monospace" font-size="11.00">File</text>
</g>
<!-- \\donbidon\\Core\\Log\\Method\\File&#45;&gt;\\donbidon\\Core\\Log\\Method\\A_Method -->
<g id="edge4" class="edge"><title>\\donbidon\\Core\\Log\\Method\\File&#45;&gt;\\donbidon\\Core\\Log\\Method\\A_Method</title>
<path fill="none" stroke="black" d="M224.117,-473.541C201.92,-469.783 169.505,-464.294 142.219,-459.673"/>
<polygon fill="none" stroke="black" points="142.489,-456.169 132.045,-457.95 141.32,-463.071 142.489,-456.169"/>
</g>
<!-- \\donbidon\\Core\\Log\\Method\\Stream -->
<g id="node6" class="node"><title>\\donbidon\\Core\\Log\\Method\\Stream</title>
<polygon fill="none" stroke="black" points="464.892,-444 407.892,-444 407.892,-408 464.892,-408 464.892,-444"/>
<text text-anchor="middle" x="436.392" y="-423.2" font-family="Courier,monospace" font-size="11.00">Stream</text>
</g>
<!-- \\donbidon\\Core\\Log\\Method\\Stream&#45;&gt;\\donbidon\\Core\\Log\\Method\\A_Stream -->
<g id="edge5" class="edge"><title>\\donbidon\\Core\\Log\\Method\\Stream&#45;&gt;\\donbidon\\Core\\Log\\Method\\A_Stream</title>
<path fill="none" stroke="black" d="M407.606,-425.696C380.158,-425.396 337.522,-424.93 303.884,-424.562"/>
<polygon fill="none" stroke="black" points="303.799,-421.061 293.761,-424.452 303.722,-428.061 303.799,-421.061"/>
</g>
<!-- \\donbidon\\Core\\Log\\Factory -->
<g id="node7" class="node"><title>\\donbidon\\Core\\Log\\Factory</title>
<polygon fill="none" stroke="black" points="468.392,-390 404.392,-390 404.392,-354 468.392,-354 468.392,-390"/>
<text text-anchor="middle" x="436.392" y="-369.2" font-family="Courier,monospace" font-size="11.00">Factory</text>
</g>
<!-- \\donbidon\\Core\\Log\\T_Logger -->
<g id="node8" class="node"><title>\\donbidon\\Core\\Log\\T_Logger</title>
<polygon fill="none" stroke="black" points="471.892,-336 400.892,-336 400.892,-300 471.892,-300 471.892,-336"/>
<text text-anchor="middle" x="436.392" y="-315.2" font-family="Courier,monospace" font-size="11.00">T_Logger</text>
</g>
<!-- \\donbidon\\Core\\Registry\\Common -->
<g id="node9" class="node"><title>\\donbidon\\Core\\Registry\\Common</title>
<polygon fill="none" stroke="black" points="279.946,-210 222.946,-210 222.946,-174 279.946,-174 279.946,-210"/>
<text text-anchor="middle" x="251.446" y="-189.2" font-family="Courier,monospace" font-size="11.00">Common</text>
</g>
<!-- \\donbidon\\Core\\Registry\\Common&#45;&gt;\\donbidon\\Core\\Registry\\I_Registry -->
<g id="edge6" class="edge"><title>\\donbidon\\Core\\Registry\\Common&#45;&gt;\\donbidon\\Core\\Registry\\I_Registry</title>
<path fill="none" stroke="black" stroke-dasharray="1,5" d="M222.672,-192C200.618,-192 169.168,-192 142.535,-192"/>
<polygon fill="none" stroke="black" points="142.217,-188.5 132.217,-192 142.217,-195.5 142.217,-188.5"/>
</g>
<!-- \\donbidon\\Core\\Registry\\Recursive -->
<g id="node10" class="node"><title>\\donbidon\\Core\\Registry\\Recursive</title>
<polygon fill="none" stroke="black" points="474.892,-210 397.892,-210 397.892,-174 474.892,-174 474.892,-210"/>
<text text-anchor="middle" x="436.392" y="-189.2" font-family="Courier,monospace" font-size="11.00">Recursive</text>
</g>
<!-- \\donbidon\\Core\\Registry\\Recursive&#45;&gt;\\donbidon\\Core\\Registry\\Common -->
<g id="edge7" class="edge"><title>\\donbidon\\Core\\Registry\\Recursive&#45;&gt;\\donbidon\\Core\\Registry\\Common</title>
<path fill="none" stroke="black" d="M397.485,-192C366.079,-192 321.665,-192 290.279,-192"/>
<polygon fill="none" stroke="black" points="290.172,-188.5 280.172,-192 290.172,-195.5 290.172,-188.5"/>
</g>
<!-- \\donbidon\\Core\\Bootstrap -->
<g id="node12" class="node"><title>\\donbidon\\Core\\Bootstrap</title>
<polygon fill="none" stroke="black" points="474.892,-282 397.892,-282 397.892,-246 474.892,-246 474.892,-282"/>
<text text-anchor="middle" x="436.392" y="-261.2" font-family="Courier,monospace" font-size="11.00">Bootstrap</text>
</g>
<!-- \\donbidon\\Core\\ExceptionExtended -->
<g id="node13" class="node"><title>\\donbidon\\Core\\ExceptionExtended</title>
<polygon fill="none" stroke="black" points="501.892,-596 370.892,-596 370.892,-560 501.892,-560 501.892,-596"/>
<text text-anchor="middle" x="436.392" y="-575.2" font-family="Courier,monospace" font-size="11.00">ExceptionExtended</text>
</g>
<!-- Exception -->
<g id="node15" class="node"><title>Exception</title>
<ellipse fill="none" stroke="black" cx="251.446" cy="-678" rx="47.3916" ry="18"/>
<text text-anchor="middle" x="251.446" y="-674.3" font-family="Times New Roman,serif" font-size="14.00" fill="gray">Exception</text>
</g>
<!-- \\donbidon\\Core\\ExceptionExtended&#45;&gt;Exception -->
<g id="edge2" class="edge"><title>\\donbidon\\Core\\ExceptionExtended&#45;&gt;Exception</title>
<path fill="none" stroke="black" d="M402.261,-596.109C370.073,-613.704 321.341,-640.341 288.267,-658.42"/>
<polygon fill="none" stroke="black" points="286.476,-655.41 279.38,-663.277 289.834,-661.552 286.476,-655.41"/>
</g>
<!-- \\donbidon\\Core\\Friendlification -->
<g id="node14" class="node"><title>\\donbidon\\Core\\Friendlification</title>
<polygon fill="none" stroke="black" points="498.892,-112 373.892,-112 373.892,-76 498.892,-76 498.892,-112"/>
<text text-anchor="middle" x="436.392" y="-91.2" font-family="Courier,monospace" font-size="11.00">Friendlification</text>
</g>
</g>
</svg>
