<?xml version="1.0" encoding="UTF-8" standalone="no"?>
<!DOCTYPE svg PUBLIC "-//W3C//DTD SVG 1.1//EN"
 "http://www.w3.org/Graphics/SVG/1.1/DTD/svg11.dtd">
<!-- Generated by graphviz version 2.38.0 (20140413.2041)
 -->
<!-- Title: G Pages: 1 -->
<svg width="360pt" height="258pt"
 viewBox="0.00 0.00 359.69 258.00" xmlns="http://www.w3.org/2000/svg" xmlns:xlink="http://www.w3.org/1999/xlink">
<g id="graph0" class="graph" transform="scale(1 1) rotate(0) translate(4 254)">
<title>G</title>
<polygon fill="white" stroke="none" points="-4,4 -4,-254 355.692,-254 355.692,4 -4,4"/>
<g id="clust1" class="cluster"><title>cluster_Global</title>
<path fill="none" stroke="gray" d="M20,-8C20,-8 331.692,-8 331.692,-8 337.692,-8 343.692,-14 343.692,-20 343.692,-20 343.692,-230 343.692,-230 343.692,-236 337.692,-242 331.692,-242 331.692,-242 20,-242 20,-242 14,-242 8,-236 8,-230 8,-230 8,-20 8,-20 8,-14 14,-8 20,-8"/>
<text text-anchor="middle" x="175.846" y="-229.2" font-family="Times New Roman,serif" font-size="11.00" fill="gray">Global</text>
</g>
<g id="clust5" class="cluster"><title>cluster_Global\PHPUnit</title>
<path fill="none" stroke="gray" d="M28,-78C28,-78 125.692,-78 125.692,-78 131.692,-78 137.692,-84 137.692,-90 137.692,-90 137.692,-174 137.692,-174 137.692,-180 131.692,-186 125.692,-186 125.692,-186 28,-186 28,-186 22,-186 16,-180 16,-174 16,-174 16,-90 16,-90 16,-84 22,-78 28,-78"/>
<text text-anchor="middle" x="76.846" y="-173.2" font-family="Times New Roman,serif" font-size="11.00" fill="gray">PHPUnit</text>
</g>
<g id="clust6" class="cluster"><title>cluster_Global\PHPUnit\Framework</title>
<path fill="none" stroke="gray" d="M36,-86C36,-86 117.692,-86 117.692,-86 123.692,-86 129.692,-92 129.692,-98 129.692,-98 129.692,-146 129.692,-146 129.692,-152 123.692,-158 117.692,-158 117.692,-158 36,-158 36,-158 30,-158 24,-152 24,-146 24,-146 24,-98 24,-98 24,-92 30,-86 36,-86"/>
<text text-anchor="middle" x="76.846" y="-145.2" font-family="Times New Roman,serif" font-size="11.00" fill="gray">Framework</text>
</g>
<g id="clust2" class="cluster"><title>cluster_\donbidon</title>
<path fill="none" stroke="gray" d="M181.692,-16C181.692,-16 323.692,-16 323.692,-16 329.692,-16 335.692,-22 335.692,-28 335.692,-28 335.692,-202 335.692,-202 335.692,-208 329.692,-214 323.692,-214 323.692,-214 181.692,-214 181.692,-214 175.692,-214 169.692,-208 169.692,-202 169.692,-202 169.692,-28 169.692,-28 169.692,-22 175.692,-16 181.692,-16"/>
<text text-anchor="middle" x="252.692" y="-201.2" font-family="Times New Roman,serif" font-size="11.00" fill="gray">donbidon</text>
</g>
<g id="clust3" class="cluster"><title>cluster_\donbidon\Lib</title>
<path fill="none" stroke="gray" d="M189.692,-24C189.692,-24 315.692,-24 315.692,-24 321.692,-24 327.692,-30 327.692,-36 327.692,-36 327.692,-174 327.692,-174 327.692,-180 321.692,-186 315.692,-186 315.692,-186 189.692,-186 189.692,-186 183.692,-186 177.692,-180 177.692,-174 177.692,-174 177.692,-36 177.692,-36 177.692,-30 183.692,-24 189.692,-24"/>
<text text-anchor="middle" x="252.692" y="-173.2" font-family="Times New Roman,serif" font-size="11.00" fill="gray">Lib</text>
</g>
<g id="clust4" class="cluster"><title>cluster_\donbidon\Lib\PHPUnit</title>
<path fill="none" stroke="gray" d="M197.692,-32C197.692,-32 307.692,-32 307.692,-32 313.692,-32 319.692,-38 319.692,-44 319.692,-44 319.692,-146 319.692,-146 319.692,-152 313.692,-158 307.692,-158 307.692,-158 197.692,-158 197.692,-158 191.692,-158 185.692,-152 185.692,-146 185.692,-146 185.692,-44 185.692,-44 185.692,-38 191.692,-32 197.692,-32"/>
<text text-anchor="middle" x="252.692" y="-145.2" font-family="Times New Roman,serif" font-size="11.00" fill="gray">PHPUnit</text>
</g>
<!-- \\donbidon\\Lib\\PHPUnit\\TestCase -->
<g id="node1" class="node"><title>\\donbidon\\Lib\\PHPUnit\\TestCase</title>
<polygon fill="none" stroke="black" points="288.192,-130 217.192,-130 217.192,-94 288.192,-94 288.192,-130"/>
<text text-anchor="middle" x="252.692" y="-109.2" font-family="Courier,monospace" font-size="11.00">TestCase</text>
</g>
<!-- TestCase -->
<g id="node3" class="node"><title>TestCase</title>
<ellipse fill="none" stroke="black" cx="76.846" cy="-112" rx="44.6926" ry="18"/>
<text text-anchor="middle" x="76.846" y="-108.3" font-family="Times New Roman,serif" font-size="14.00" fill="gray">TestCase</text>
</g>
<!-- \\donbidon\\Lib\\PHPUnit\\TestCase&#45;&gt;TestCase -->
<g id="edge1" class="edge"><title>\\donbidon\\Lib\\PHPUnit\\TestCase&#45;&gt;TestCase</title>
<path fill="none" stroke="black" d="M216.93,-112C192.679,-112 159.834,-112 132.152,-112"/>
<polygon fill="none" stroke="black" points="131.824,-108.5 121.824,-112 131.823,-115.5 131.824,-108.5"/>
</g>
<!-- \\donbidon\\Lib\\PHPUnit\\T_ResetInstance -->
<g id="node2" class="node"><title>\\donbidon\\Lib\\PHPUnit\\T_ResetInstance</title>
<polygon fill="none" stroke="black" points="311.692,-76 193.692,-76 193.692,-40 311.692,-40 311.692,-76"/>
<text text-anchor="middle" x="252.692" y="-55.2" font-family="Courier,monospace" font-size="11.00">T_ResetInstance</text>
</g>
</g>
</svg>
