<?xml version="1.0" encoding="UTF-8" standalone="no"?>
<!DOCTYPE svg PUBLIC "-//W3C//DTD SVG 1.1//EN"
 "http://www.w3.org/Graphics/SVG/1.1/DTD/svg11.dtd">
<!-- Generated by graphviz version 2.38.0 (20140413.2041)
 -->
<!-- Title: G Pages: 1 -->
<svg width="509pt" height="580pt"
 viewBox="0.00 0.00 509.00 580.00" xmlns="http://www.w3.org/2000/svg" xmlns:xlink="http://www.w3.org/1999/xlink">
<g id="graph0" class="graph" transform="scale(1 1) rotate(0) translate(4 576)">
<title>G</title>
<polygon fill="white" stroke="none" points="-4,4 -4,-576 505,-576 505,4 -4,4"/>
<g id="clust1" class="cluster"><title>cluster_Global</title>
<path fill="none" stroke="gray" d="M20,-8C20,-8 481,-8 481,-8 487,-8 493,-14 493,-20 493,-20 493,-552 493,-552 493,-558 487,-564 481,-564 481,-564 20,-564 20,-564 14,-564 8,-558 8,-552 8,-552 8,-20 8,-20 8,-14 14,-8 20,-8"/>
<text text-anchor="middle" x="250.5" y="-551.2" font-family="Times New Roman,serif" font-size="11.00" fill="gray">Global</text>
</g>
<g id="clust2" class="cluster"><title>cluster_\donbidon</title>
<path fill="none" stroke="gray" d="M28,-16C28,-16 473,-16 473,-16 479,-16 485,-22 485,-28 485,-28 485,-524 485,-524 485,-530 479,-536 473,-536 473,-536 28,-536 28,-536 22,-536 16,-530 16,-524 16,-524 16,-28 16,-28 16,-22 22,-16 28,-16"/>
<text text-anchor="middle" x="250.5" y="-523.2" font-family="Times New Roman,serif" font-size="11.00" fill="gray">donbidon</text>
</g>
<g id="clust3" class="cluster"><title>cluster_\donbidon\TunneledWebHooks</title>
<path fill="none" stroke="gray" d="M36,-24C36,-24 465,-24 465,-24 471,-24 477,-30 477,-36 477,-36 477,-496 477,-496 477,-502 471,-508 465,-508 465,-508 36,-508 36,-508 30,-508 24,-502 24,-496 24,-496 24,-36 24,-36 24,-30 30,-24 36,-24"/>
<text text-anchor="middle" x="250.5" y="-495.2" font-family="Times New Roman,serif" font-size="11.00" fill="gray">TunneledWebHooks</text>
</g>
<g id="clust4" class="cluster"><title>cluster_\donbidon\TunneledWebHooks\Service</title>
<path fill="none" stroke="gray" d="M59,-408C59,-408 432.5,-408 432.5,-408 438.5,-408 444.5,-414 444.5,-420 444.5,-420 444.5,-468 444.5,-468 444.5,-474 438.5,-480 432.5,-480 432.5,-480 59,-480 59,-480 53,-480 47,-474 47,-468 47,-468 47,-420 47,-420 47,-414 53,-408 59,-408"/>
<text text-anchor="middle" x="245.75" y="-467.2" font-family="Times New Roman,serif" font-size="11.00" fill="gray">Service</text>
</g>
<g id="clust5" class="cluster"><title>cluster_\donbidon\TunneledWebHooks\WebHook</title>
<path fill="none" stroke="gray" d="M44,-76C44,-76 457,-76 457,-76 463,-76 469,-82 469,-88 469,-88 469,-388 469,-388 469,-394 463,-400 457,-400 457,-400 44,-400 44,-400 38,-400 32,-394 32,-388 32,-388 32,-88 32,-88 32,-82 38,-76 44,-76"/>
<text text-anchor="middle" x="250.5" y="-387.2" font-family="Times New Roman,serif" font-size="11.00" fill="gray">WebHook</text>
</g>
<g id="clust6" class="cluster"><title>cluster_\donbidon\TunneledWebHooks\WebHook\Connector</title>
<path fill="none" stroke="gray" d="M52,-300C52,-300 441,-300 441,-300 447,-300 453,-306 453,-312 453,-312 453,-360 453,-360 453,-366 447,-372 441,-372 441,-372 52,-372 52,-372 46,-372 40,-366 40,-360 40,-360 40,-312 40,-312 40,-306 46,-300 52,-300"/>
<text text-anchor="middle" x="246.5" y="-359.2" font-family="Times New Roman,serif" font-size="11.00" fill="gray">Connector</text>
</g>
<g id="clust7" class="cluster"><title>cluster_\donbidon\TunneledWebHooks\WebHook\Handler</title>
<path fill="none" stroke="gray" d="M59,-84C59,-84 449,-84 449,-84 455,-84 461,-90 461,-96 461,-96 461,-280 461,-280 461,-286 455,-292 449,-292 449,-292 59,-292 59,-292 53,-292 47,-286 47,-280 47,-280 47,-96 47,-96 47,-90 53,-84 59,-84"/>
<text text-anchor="middle" x="254" y="-279.2" font-family="Times New Roman,serif" font-size="11.00" fill="gray">Handler</text>
</g>
<g id="clust8" class="cluster"><title>cluster_\donbidon\TunneledWebHooks\WebHook\Handler\IO</title>
<path fill="none" stroke="gray" d="M70.5,-138C70.5,-138 441,-138 441,-138 447,-138 453,-144 453,-150 453,-150 453,-252 453,-252 453,-258 447,-264 441,-264 441,-264 70.5,-264 70.5,-264 64.5,-264 58.5,-258 58.5,-252 58.5,-252 58.5,-150 58.5,-150 58.5,-144 64.5,-138 70.5,-138"/>
<text text-anchor="middle" x="255.75" y="-251.2" font-family="Times New Roman,serif" font-size="11.00" fill="gray">IO</text>
</g>
<!-- \\donbidon\\TunneledWebHooks\\Service\\A_Service -->
<g id="node1" class="node"><title>\\donbidon\\TunneledWebHooks\\Service\\A_Service</title>
<polygon fill="none" stroke="black" points="298.5,-452 214.5,-452 214.5,-416 298.5,-416 298.5,-452"/>
<text text-anchor="start" x="222.5" y="-437.2" font-family="Courier,monospace" font-size="11.00">«abstract»</text>
<text text-anchor="start" x="226" y="-425.2" font-family="Courier,monospace" font-size="11.00">A_Service</text>
</g>
<!-- \\donbidon\\TunneledWebHooks\\Service\\I_Service -->
<g id="node3" class="node"><title>\\donbidon\\TunneledWebHooks\\Service\\I_Service</title>
<polygon fill="none" stroke="black" points="132,-452 55,-452 55,-416 132,-416 132,-452"/>
<text text-anchor="middle" x="93.5" y="-431.2" font-family="Courier,monospace" font-size="11.00">I_Service</text>
</g>
<!-- \\donbidon\\TunneledWebHooks\\Service\\A_Service&#45;&gt;\\donbidon\\TunneledWebHooks\\Service\\I_Service -->
<g id="edge2" class="edge"><title>\\donbidon\\TunneledWebHooks\\Service\\A_Service&#45;&gt;\\donbidon\\TunneledWebHooks\\Service\\I_Service</title>
<path fill="none" stroke="black" stroke-dasharray="1,5" d="M214.456,-434C192.481,-434 165.294,-434 142.362,-434"/>
<polygon fill="none" stroke="black" points="142.158,-430.5 132.158,-434 142.158,-437.5 142.158,-430.5"/>
</g>
<!-- \\donbidon\\TunneledWebHooks\\Service\\ngrok -->
<g id="node2" class="node"><title>\\donbidon\\TunneledWebHooks\\Service\\ngrok</title>
<polygon fill="none" stroke="black" points="436.5,-452 382.5,-452 382.5,-416 436.5,-416 436.5,-452"/>
<text text-anchor="middle" x="409.5" y="-431.2" font-family="Courier,monospace" font-size="11.00">ngrok</text>
</g>
<!-- \\donbidon\\TunneledWebHooks\\Service\\ngrok&#45;&gt;\\donbidon\\TunneledWebHooks\\Service\\A_Service -->
<g id="edge3" class="edge"><title>\\donbidon\\TunneledWebHooks\\Service\\ngrok&#45;&gt;\\donbidon\\TunneledWebHooks\\Service\\A_Service</title>
<path fill="none" stroke="black" d="M382.198,-434C362.014,-434 333.52,-434 308.865,-434"/>
<polygon fill="none" stroke="black" points="308.568,-430.5 298.568,-434 308.568,-437.5 308.568,-430.5"/>
</g>
<!-- \\donbidon\\TunneledWebHooks\\WebHook\\Connector\\A_Connector -->
<g id="node4" class="node"><title>\\donbidon\\TunneledWebHooks\\WebHook\\Connector\\A_Connector</title>
<polygon fill="none" stroke="black" points="302,-344 211,-344 211,-308 302,-308 302,-344"/>
<text text-anchor="start" x="222.5" y="-329.2" font-family="Courier,monospace" font-size="11.00">«abstract»</text>
<text text-anchor="start" x="219" y="-317.2" font-family="Courier,monospace" font-size="11.00">A_Connector</text>
</g>
<!-- \\donbidon\\TunneledWebHooks\\WebHook\\Connector\\I_Connector -->
<g id="node6" class="node"><title>\\donbidon\\TunneledWebHooks\\WebHook\\Connector\\I_Connector</title>
<polygon fill="none" stroke="black" points="139,-344 48,-344 48,-308 139,-308 139,-344"/>
<text text-anchor="middle" x="93.5" y="-323.2" font-family="Courier,monospace" font-size="11.00">I_Connector</text>
</g>
<!-- \\donbidon\\TunneledWebHooks\\WebHook\\Connector\\A_Connector&#45;&gt;\\donbidon\\TunneledWebHooks\\WebHook\\Connector\\I_Connector -->
<g id="edge4" class="edge"><title>\\donbidon\\TunneledWebHooks\\WebHook\\Connector\\A_Connector&#45;&gt;\\donbidon\\TunneledWebHooks\\WebHook\\Connector\\I_Connector</title>
<path fill="none" stroke="black" stroke-dasharray="1,5" d="M210.653,-326C191.637,-326 169.295,-326 149.312,-326"/>
<polygon fill="none" stroke="black" points="149.107,-322.5 139.107,-326 149.107,-329.5 149.107,-322.5"/>
</g>
<!-- \\donbidon\\TunneledWebHooks\\WebHook\\Connector\\Telegram -->
<g id="node5" class="node"><title>\\donbidon\\TunneledWebHooks\\WebHook\\Connector\\Telegram</title>
<polygon fill="none" stroke="black" points="445,-344 374,-344 374,-308 445,-308 445,-344"/>
<text text-anchor="middle" x="409.5" y="-323.2" font-family="Courier,monospace" font-size="11.00">Telegram</text>
</g>
<!-- \\donbidon\\TunneledWebHooks\\WebHook\\Connector\\Telegram&#45;&gt;\\donbidon\\TunneledWebHooks\\WebHook\\Connector\\A_Connector -->
<g id="edge5" class="edge"><title>\\donbidon\\TunneledWebHooks\\WebHook\\Connector\\Telegram&#45;&gt;\\donbidon\\TunneledWebHooks\\WebHook\\Connector\\A_Connector</title>
<path fill="none" stroke="black" d="M373.858,-326C355.608,-326 332.802,-326 312.227,-326"/>
<polygon fill="none" stroke="black" points="312.023,-322.5 302.022,-326 312.022,-329.5 312.023,-322.5"/>
</g>
<!-- \\donbidon\\TunneledWebHooks\\WebHook\\Handler\\IO\\A_IO -->
<g id="node7" class="node"><title>\\donbidon\\TunneledWebHooks\\WebHook\\Handler\\IO\\A_IO</title>
<polygon fill="none" stroke="black" points="298.5,-209 214.5,-209 214.5,-173 298.5,-173 298.5,-209"/>
<text text-anchor="start" x="222.5" y="-194.2" font-family="Courier,monospace" font-size="11.00">«abstract»</text>
<text text-anchor="start" x="242.5" y="-182.2" font-family="Courier,monospace" font-size="11.00">A_IO</text>
</g>
<!-- \\donbidon\\TunneledWebHooks\\WebHook\\Handler\\IO\\I_IO -->
<g id="node10" class="node"><title>\\donbidon\\TunneledWebHooks\\WebHook\\Handler\\IO\\I_IO</title>
<polygon fill="none" stroke="black" points="120.5,-209 66.5,-209 66.5,-173 120.5,-173 120.5,-209"/>
<text text-anchor="middle" x="93.5" y="-188.2" font-family="Courier,monospace" font-size="11.00">I_IO</text>
</g>
<!-- \\donbidon\\TunneledWebHooks\\WebHook\\Handler\\IO\\A_IO&#45;&gt;\\donbidon\\TunneledWebHooks\\WebHook\\Handler\\IO\\I_IO -->
<g id="edge7" class="edge"><title>\\donbidon\\TunneledWebHooks\\WebHook\\Handler\\IO\\A_IO&#45;&gt;\\donbidon\\TunneledWebHooks\\WebHook\\Handler\\IO\\I_IO</title>
<path fill="none" stroke="black" stroke-dasharray="1,5" d="M214.456,-191C188.696,-191 155.775,-191 130.939,-191"/>
<polygon fill="none" stroke="black" points="130.835,-187.5 120.835,-191 130.835,-194.5 130.835,-187.5"/>
</g>
<!-- \\donbidon\\TunneledWebHooks\\WebHook\\Handler\\IO\\Console -->
<g id="node8" class="node"><title>\\donbidon\\TunneledWebHooks\\WebHook\\Handler\\IO\\Console</title>
<polygon fill="none" stroke="black" points="441.5,-236 377.5,-236 377.5,-200 441.5,-200 441.5,-236"/>
<text text-anchor="middle" x="409.5" y="-215.2" font-family="Courier,monospace" font-size="11.00">Console</text>
</g>
<!-- \\donbidon\\TunneledWebHooks\\WebHook\\Handler\\IO\\Console&#45;&gt;\\donbidon\\TunneledWebHooks\\WebHook\\Handler\\IO\\A_IO -->
<g id="edge8" class="edge"><title>\\donbidon\\TunneledWebHooks\\WebHook\\Handler\\IO\\Console&#45;&gt;\\donbidon\\TunneledWebHooks\\WebHook\\Handler\\IO\\A_IO</title>
<path fill="none" stroke="black" d="M377.213,-212.406C357.422,-208.867 331.374,-204.209 308.63,-200.143"/>
<polygon fill="none" stroke="black" points="309.242,-196.696 298.782,-198.381 308.009,-203.587 309.242,-196.696"/>
</g>
<!-- \\donbidon\\TunneledWebHooks\\WebHook\\Handler\\IO\\Telegram -->
<g id="node9" class="node"><title>\\donbidon\\TunneledWebHooks\\WebHook\\Handler\\IO\\Telegram</title>
<polygon fill="none" stroke="black" points="445,-182 374,-182 374,-146 445,-146 445,-182"/>
<text text-anchor="middle" x="409.5" y="-161.2" font-family="Courier,monospace" font-size="11.00">Telegram</text>
</g>
<!-- \\donbidon\\TunneledWebHooks\\WebHook\\Handler\\IO\\Telegram&#45;&gt;\\donbidon\\TunneledWebHooks\\WebHook\\Handler\\IO\\A_IO -->
<g id="edge9" class="edge"><title>\\donbidon\\TunneledWebHooks\\WebHook\\Handler\\IO\\Telegram&#45;&gt;\\donbidon\\TunneledWebHooks\\WebHook\\Handler\\IO\\A_IO</title>
<path fill="none" stroke="black" d="M373.858,-170.194C354.54,-173.649 330.115,-178.016 308.637,-181.856"/>
<polygon fill="none" stroke="black" points="307.914,-178.43 298.686,-183.636 309.146,-185.321 307.914,-178.43"/>
</g>
<!-- \\donbidon\\TunneledWebHooks\\WebHook\\Handler\\A_Handler -->
<g id="node11" class="node"><title>\\donbidon\\TunneledWebHooks\\WebHook\\Handler\\A_Handler</title>
<polygon fill="none" stroke="black" points="298.5,-128 214.5,-128 214.5,-92 298.5,-92 298.5,-128"/>
<text text-anchor="start" x="222.5" y="-113.2" font-family="Courier,monospace" font-size="11.00">«abstract»</text>
<text text-anchor="start" x="226" y="-101.2" font-family="Courier,monospace" font-size="11.00">A_Handler</text>
</g>
<!-- \\donbidon\\TunneledWebHooks\\WebHook\\Handler\\I_Handler -->
<g id="node13" class="node"><title>\\donbidon\\TunneledWebHooks\\WebHook\\Handler\\I_Handler</title>
<polygon fill="none" stroke="black" points="132,-128 55,-128 55,-92 132,-92 132,-128"/>
<text text-anchor="middle" x="93.5" y="-107.2" font-family="Courier,monospace" font-size="11.00">I_Handler</text>
</g>
<!-- \\donbidon\\TunneledWebHooks\\WebHook\\Handler\\A_Handler&#45;&gt;\\donbidon\\TunneledWebHooks\\WebHook\\Handler\\I_Handler -->
<g id="edge6" class="edge"><title>\\donbidon\\TunneledWebHooks\\WebHook\\Handler\\A_Handler&#45;&gt;\\donbidon\\TunneledWebHooks\\WebHook\\Handler\\I_Handler</title>
<path fill="none" stroke="black" stroke-dasharray="1,5" d="M214.456,-110C192.481,-110 165.294,-110 142.362,-110"/>
<polygon fill="none" stroke="black" points="142.158,-106.5 132.158,-110 142.158,-113.5 142.158,-106.5"/>
</g>
<!-- \\donbidon\\TunneledWebHooks\\WebHook\\Handler\\Windbag -->
<g id="node12" class="node"><title>\\donbidon\\TunneledWebHooks\\WebHook\\Handler\\Windbag</title>
<polygon fill="none" stroke="black" points="441.5,-128 377.5,-128 377.5,-92 441.5,-92 441.5,-128"/>
<text text-anchor="middle" x="409.5" y="-107.2" font-family="Courier,monospace" font-size="11.00">Windbag</text>
</g>
<!-- \\donbidon\\TunneledWebHooks\\WebHook\\Handler\\Windbag&#45;&gt;\\donbidon\\TunneledWebHooks\\WebHook\\Handler\\A_Handler -->
<g id="edge10" class="edge"><title>\\donbidon\\TunneledWebHooks\\WebHook\\Handler\\Windbag&#45;&gt;\\donbidon\\TunneledWebHooks\\WebHook\\Handler\\A_Handler</title>
<path fill="none" stroke="black" d="M377.213,-110C357.511,-110 331.607,-110 308.937,-110"/>
<polygon fill="none" stroke="black" points="308.782,-106.5 298.782,-110 308.782,-113.5 308.782,-106.5"/>
</g>
<!-- \\donbidon\\TunneledWebHooks\\Runner -->
<g id="node14" class="node"><title>\\donbidon\\TunneledWebHooks\\Runner</title>
<polygon fill="none" stroke="black" points="438,-68 381,-68 381,-32 438,-32 438,-68"/>
<text text-anchor="middle" x="409.5" y="-47.2" font-family="Courier,monospace" font-size="11.00">Runner</text>
</g>
<!-- \\donbidon\\TunneledWebHooks\\I_Runner -->
<g id="node15" class="node"><title>\\donbidon\\TunneledWebHooks\\I_Runner</title>
<polygon fill="none" stroke="black" points="292,-68 221,-68 221,-32 292,-32 292,-68"/>
<text text-anchor="middle" x="256.5" y="-47.2" font-family="Courier,monospace" font-size="11.00">I_Runner</text>
</g>
<!-- \\donbidon\\TunneledWebHooks\\Runner&#45;&gt;\\donbidon\\TunneledWebHooks\\I_Runner -->
<g id="edge1" class="edge"><title>\\donbidon\\TunneledWebHooks\\Runner&#45;&gt;\\donbidon\\TunneledWebHooks\\I_Runner</title>
<path fill="none" stroke="black" stroke-dasharray="1,5" d="M380.804,-50C358.879,-50 327.816,-50 302.354,-50"/>
<polygon fill="none" stroke="black" points="302.187,-46.5001 292.187,-50 302.187,-53.5001 302.187,-46.5001"/>
</g>
</g>
</svg>
