<?xml version="1.0" encoding="UTF-8" standalone="no"?>
<!DOCTYPE svg PUBLIC "-//W3C//DTD SVG 1.1//EN"
 "http://www.w3.org/Graphics/SVG/1.1/DTD/svg11.dtd">
<!-- Generated by graphviz version 2.38.0 (20140413.2041)
 -->
<!-- Title: G Pages: 1 -->
<svg width="129pt" height="168pt"
 viewBox="0.00 0.00 129.00 168.00" xmlns="http://www.w3.org/2000/svg" xmlns:xlink="http://www.w3.org/1999/xlink">
<g id="graph0" class="graph" transform="scale(1 1) rotate(0) translate(4 164)">
<title>G</title>
<polygon fill="white" stroke="none" points="-4,4 -4,-164 125,-164 125,4 -4,4"/>
<g id="clust1" class="cluster"><title>cluster_Global</title>
<path fill="none" stroke="gray" d="M20,-8C20,-8 101,-8 101,-8 107,-8 113,-14 113,-20 113,-20 113,-140 113,-140 113,-146 107,-152 101,-152 101,-152 20,-152 20,-152 14,-152 8,-146 8,-140 8,-140 8,-20 8,-20 8,-14 14,-8 20,-8"/>
<text text-anchor="middle" x="60.5" y="-139.2" font-family="Times New Roman,serif" font-size="11.00" fill="gray">Global</text>
</g>
<g id="clust2" class="cluster"><title>cluster_\donbidon</title>
<path fill="none" stroke="gray" d="M28,-16C28,-16 93,-16 93,-16 99,-16 105,-22 105,-28 105,-28 105,-112 105,-112 105,-118 99,-124 93,-124 93,-124 28,-124 28,-124 22,-124 16,-118 16,-112 16,-112 16,-28 16,-28 16,-22 22,-16 28,-16"/>
<text text-anchor="middle" x="60.5" y="-111.2" font-family="Times New Roman,serif" font-size="11.00" fill="gray">donbidon</text>
</g>
<g id="clust3" class="cluster"><title>cluster_\donbidon\Lib</title>
<path fill="none" stroke="gray" d="M36,-24C36,-24 85,-24 85,-24 91,-24 97,-30 97,-36 97,-36 97,-84 97,-84 97,-90 91,-96 85,-96 85,-96 36,-96 36,-96 30,-96 24,-90 24,-84 24,-84 24,-36 24,-36 24,-30 30,-24 36,-24"/>
<text text-anchor="middle" x="60.5" y="-83.2" font-family="Times New Roman,serif" font-size="11.00" fill="gray">Lib</text>
</g>
<!-- \\donbidon\\Lib\\Arrays -->
<g id="node1" class="node"><title>\\donbidon\\Lib\\Arrays</title>
<polygon fill="none" stroke="black" points="89,-68 32,-68 32,-32 89,-32 89,-68"/>
<text text-anchor="middle" x="60.5" y="-47.2" font-family="Courier,monospace" font-size="11.00">Arrays</text>
</g>
</g>
</svg>
