<?xml version="1.0" encoding="UTF-8" standalone="no"?>
<!DOCTYPE svg PUBLIC "-//W3C//DTD SVG 1.1//EN"
 "http://www.w3.org/Graphics/SVG/1.1/DTD/svg11.dtd">
<!-- Generated by graphviz version 2.38.0 (20140413.2041)
 -->
<!-- Title: G Pages: 1 -->
<svg width="145pt" height="258pt"
 viewBox="0.00 0.00 145.00 258.00" xmlns="http://www.w3.org/2000/svg" xmlns:xlink="http://www.w3.org/1999/xlink">
<g id="graph0" class="graph" transform="scale(1 1) rotate(0) translate(4 254)">
<title>G</title>
<polygon fill="white" stroke="none" points="-4,4 -4,-254 141,-254 141,4 -4,4"/>
<g id="clust1" class="cluster"><title>cluster_Global</title>
<path fill="none" stroke="gray" d="M20,-8C20,-8 117,-8 117,-8 123,-8 129,-14 129,-20 129,-20 129,-230 129,-230 129,-236 123,-242 117,-242 117,-242 20,-242 20,-242 14,-242 8,-236 8,-230 8,-230 8,-20 8,-20 8,-14 14,-8 20,-8"/>
<text text-anchor="middle" x="68.5" y="-229.2" font-family="Times New Roman,serif" font-size="11.00" fill="gray">Global</text>
</g>
<g id="clust2" class="cluster"><title>cluster_\donbidon</title>
<path fill="none" stroke="gray" d="M28,-16C28,-16 109,-16 109,-16 115,-16 121,-22 121,-28 121,-28 121,-202 121,-202 121,-208 115,-214 109,-214 109,-214 28,-214 28,-214 22,-214 16,-208 16,-202 16,-202 16,-28 16,-28 16,-22 22,-16 28,-16"/>
<text text-anchor="middle" x="68.5" y="-201.2" font-family="Times New Roman,serif" font-size="11.00" fill="gray">donbidon</text>
</g>
<g id="clust3" class="cluster"><title>cluster_\donbidon\Lib</title>
<path fill="none" stroke="gray" d="M36,-24C36,-24 101,-24 101,-24 107,-24 113,-30 113,-36 113,-36 113,-174 113,-174 113,-180 107,-186 101,-186 101,-186 36,-186 36,-186 30,-186 24,-180 24,-174 24,-174 24,-36 24,-36 24,-30 30,-24 36,-24"/>
<text text-anchor="middle" x="68.5" y="-173.2" font-family="Times New Roman,serif" font-size="11.00" fill="gray">Lib</text>
</g>
<g id="clust4" class="cluster"><title>cluster_\donbidon\Lib\FileSystem</title>
<path fill="none" stroke="gray" d="M44,-32C44,-32 93,-32 93,-32 99,-32 105,-38 105,-44 105,-44 105,-146 105,-146 105,-152 99,-158 93,-158 93,-158 44,-158 44,-158 38,-158 32,-152 32,-146 32,-146 32,-44 32,-44 32,-38 38,-32 44,-32"/>
<text text-anchor="middle" x="68.5" y="-145.2" font-family="Times New Roman,serif" font-size="11.00" fill="gray">FileSystem</text>
</g>
<!-- \\donbidon\\Lib\\FileSystem\\Logger -->
<g id="node1" class="node"><title>\\donbidon\\Lib\\FileSystem\\Logger</title>
<polygon fill="none" stroke="black" points="97,-130 40,-130 40,-94 97,-94 97,-130"/>
<text text-anchor="middle" x="68.5" y="-109.2" font-family="Courier,monospace" font-size="11.00">Logger</text>
</g>
<!-- \\donbidon\\Lib\\FileSystem\\Tools -->
<g id="node2" class="node"><title>\\donbidon\\Lib\\FileSystem\\Tools</title>
<polygon fill="none" stroke="black" points="95.5,-76 41.5,-76 41.5,-40 95.5,-40 95.5,-76"/>
<text text-anchor="middle" x="68.5" y="-55.2" font-family="Courier,monospace" font-size="11.00">Tools</text>
</g>
</g>
</svg>
